<?xml version="1.0" encoding="iso-8859-1"?>
<!-- Generator: Adobe Illustrator 19.0.0, SVG Export Plug-In . SVG Version: 6.00 Build 0)  -->
<svg version="1.1" id="Capa_1" xmlns="http://www.w3.org/2000/svg" xmlns:xlink="http://www.w3.org/1999/xlink" x="0px" y="0px"
	 viewBox="0 0 512.007 512.007" style="enable-background:new 0 0 512.007 512.007;" xml:space="preserve">
<g>
	<path style="fill:#8BC34A;" d="M64.004,192.007c-17.664,0-32,14.336-32,32v128c0,17.664,14.336,32,32,32s32-14.336,32-32v-128
		C96.004,206.343,81.668,192.007,64.004,192.007z"/>
	<path style="fill:#8BC34A;" d="M448.004,192.007c-17.664,0-32,14.336-32,32v128c0,17.664,14.336,32,32,32s32-14.336,32-32v-128
		C480.004,206.343,465.668,192.007,448.004,192.007z"/>
	<path style="fill:#8BC34A;" d="M128.004,385.863c0,17.664,14.336,32,32,32v62.144c0,17.664,14.336,32,32,32s32-14.336,32-32
		v-62.144h64v62.144c0,17.664,14.336,32,32,32s32-14.336,32-32v-62.144c17.664,0,32-14.336,32-32v-192h-256V385.863z"/>
	<path style="fill:#8BC34A;" d="M335.876,60.711l28.48-34.528c5.632-6.816,4.672-16.896-2.144-22.528
		c-6.848-5.6-16.896-4.672-22.528,2.144l-31.136,37.728c-16.064-7.264-33.76-11.52-52.544-11.52c-19.04,0-36.96,4.416-53.184,11.904
		L172.516,6.023c-5.536-6.88-15.584-8.032-22.496-2.496c-6.88,5.536-8,15.584-2.496,22.496l28.096,35.136
		c-28.832,23.456-47.616,58.784-47.616,98.848h256C384.004,119.687,364.996,84.167,335.876,60.711z M224.004,112.007
		c-8.832,0-16-7.168-16-16s7.168-16,16-16s16,7.168,16,16S232.836,112.007,224.004,112.007z M288.004,112.007
		c-8.832,0-16-7.168-16-16s7.168-16,16-16s16,7.168,16,16S296.836,112.007,288.004,112.007z"/>
</g>
<g>
</g>
<g>
</g>
<g>
</g>
<g>
</g>
<g>
</g>
<g>
</g>
<g>
</g>
<g>
</g>
<g>
</g>
<g>
</g>
<g>
</g>
<g>
</g>
<g>
</g>
<g>
</g>
<g>
</g>
</svg>
