<?xml version="1.0" encoding="iso-8859-1"?>
<!-- Generator: Adobe Illustrator 19.0.0, SVG Export Plug-In . SVG Version: 6.00 Build 0)  -->
<svg version="1.1" id="Capa_1" xmlns="http://www.w3.org/2000/svg" xmlns:xlink="http://www.w3.org/1999/xlink" x="0px" y="0px"
	 viewBox="0 0 512 512" style="enable-background:new 0 0 512 512;" xml:space="preserve">
<path style="fill:#FF9800;" d="M512,256c0,141.344-114.656,244.864-256,244.864S0,386.208,0,244.864
	c0-44.288,11.36-86.144,31.168-122.432c0.224-0.672,0.672-1.344,1.12-1.792c-11.136-16.672-16.032-58.976,12.224-87.264
	c0,11.808,7.136,32.064,15.136,47.2c6.464,12.032,13.344,20.704,18.24,19.584c11.136-2.656,50.08-2.656,55.648,0
	c9.152-11.776,31.424-44.512,66.816-44.512c-19.808,19.808-76.576,89.056,22.272,89.056c11.136,0,22.272,0,22.272,0l-66.816,44.512
	c0,0,7.584,14.688,0,22.272c-8.448-8.48-44.512,9.12-44.512,33.376s25.824,55.648,77.92,55.648s38.944-22.272,66.784-22.272
	s33.376,22.272,33.376,22.272c-38.304,0-66.112,44.512-111.296,44.512c22.272,16.48,36.96,22.272,66.784,22.272
	c73.696,0,133.568-59.872,133.568-133.568c0-29.824-9.792-57.216-26.272-79.456c29.824,22.272,49.856,56.544,53.44,95.488
	c4-15.584,6.24-32.288,6.24-49.408c0-67.008-28.48-155.616-77.92-189.216C427.424,32.48,512,101.568,512,233.728
	C512,236.192,512,253.536,512,256z"/>
<g>
</g>
<g>
</g>
<g>
</g>
<g>
</g>
<g>
</g>
<g>
</g>
<g>
</g>
<g>
</g>
<g>
</g>
<g>
</g>
<g>
</g>
<g>
</g>
<g>
</g>
<g>
</g>
<g>
</g>
</svg>
