<svg id="color" enable-background="new 0 0 24 24" height="512" viewBox="0 0 24 24" width="512" xmlns="http://www.w3.org/2000/svg"><path d="m14.25 0h-11.5c-1.52 0-2.75 1.23-2.75 2.75v15.5c0 1.52 1.23 2.75 2.75 2.75h10.25v-2.25c0-1.43.82-2.67 2-3.3.02-1.54.81-2.89 2-3.69v-9.01c0-1.52-1.23-2.75-2.75-2.75z" fill="#eceff1"/><g fill="#90a4ae"><path d="m13 10h-9c-.552 0-1-.448-1-1s.448-1 1-1h9c.552 0 1 .448 1 1s-.448 1-1 1z"/><path d="m9 14h-5c-.552 0-1-.448-1-1s.448-1 1-1h5c.552 0 1 .448 1 1s-.448 1-1 1z"/><path d="m8 6h-4c-.552 0-1-.448-1-1s.448-1 1-1h4c.552 0 1 .448 1 1s-.448 1-1 1z"/></g><path d="m21.25 18.5h-3.5c-.414 0-.75-.336-.75-.75v-2.25c0-1.378 1.121-2.5 2.5-2.5s2.5 1.122 2.5 2.5v2.25c0 .414-.336.75-.75.75zm-2.75-1.5h2v-1.5c0-.551-.448-1-1-1s-1 .449-1 1z" fill="#546e7a"/><path d="m22.25 24h-5.5c-.965 0-1.75-.785-1.75-1.75v-3.5c0-.965.785-1.75 1.75-1.75h5.5c.965 0 1.75.785 1.75 1.75v3.5c0 .965-.785 1.75-1.75 1.75z" fill="#ffc107"/></svg>